<svg width="85" height="85" viewBox="0 0 85 85" fill="none" xmlns="http://www.w3.org/2000/svg">
<circle cx="42.5" cy="42.5" r="40.5" stroke="#EB6437" stroke-width="4"/>
<path d="M41.0056 50.0016L41.0055 52.0016L45.0055 52.0017L45.0056 50.0017L41.0056 50.0016ZM45.0058 21.8458L45.0058 19.8458L41.0058 19.8457L41.0058 21.8457L45.0058 21.8458ZM45.0056 50.0017L45.0058 21.8458L41.0058 21.8457L41.0056 50.0016L45.0056 50.0017Z" fill="#EB6437"/>
<path d="M41.0065 66.1556L41.0071 68.1556L45.0071 68.1543L45.0065 66.1543L41.0065 66.1556ZM45.0057 63.4976L45.0051 61.4976L41.0051 61.4988L41.0057 63.4988L45.0057 63.4976ZM45.0065 66.1543L45.0057 63.4976L41.0057 63.4988L41.0065 66.1556L45.0065 66.1543Z" fill="#EB6437"/>
</svg>
