<svg width="38" height="38" viewBox="0 0 38 38" fill="none" xmlns="http://www.w3.org/2000/svg">
<path d="M28.9551 12.8906H9.49414C9.12895 12.8906 8.77872 12.7456 8.52049 12.4873C8.26226 12.2291 8.11719 11.8789 8.11719 11.5137V1.7832C8.11719 1.41801 8.26226 1.06778 8.52049 0.80955C8.77872 0.551321 9.12895 0.40625 9.49414 0.40625H28.9551C29.3203 0.40625 29.6705 0.551321 29.9287 0.80955C30.187 1.06778 30.332 1.41801 30.332 1.7832V11.5137C30.332 11.8789 30.187 12.2291 29.9287 12.4873C29.6705 12.7456 29.3203 12.8906 28.9551 12.8906ZM10.8711 10.1367H27.5781V3.16016H10.8711V10.1367Z" fill="#5AC37D"/>
<path d="M28.9551 37.3086H9.49414C9.12895 37.3086 8.77872 37.1635 8.52049 36.9053C8.26226 36.6471 8.11719 36.2968 8.11719 35.9316V20.977C8.11719 20.6118 8.26226 20.2616 8.52049 20.0034C8.77872 19.7451 9.12895 19.6001 9.49414 19.6001H28.9551C29.3203 19.6001 29.6705 19.7451 29.9287 20.0034C30.187 20.2616 30.332 20.6118 30.332 20.977V35.9316C30.332 36.2968 30.187 36.6471 29.9287 36.9053C29.6705 37.1635 29.3203 37.3086 28.9551 37.3086ZM10.8711 34.5547H27.5781V22.354H10.8711V34.5547Z" fill="#5AC37D"/>
<path d="M33.3842 30.791H28.955C28.5899 30.791 28.2396 30.6459 27.9814 30.3877C27.7232 30.1295 27.5781 29.7793 27.5781 29.4141C27.5781 29.0489 27.7232 28.6986 27.9814 28.4404C28.2396 28.1822 28.5899 28.0371 28.955 28.0371H33.3842C33.8438 28.0366 34.2843 27.8539 34.6092 27.529C34.9341 27.204 35.1169 26.7635 35.1174 26.304V14.6247C35.1171 14.165 34.9345 13.7242 34.6095 13.3991C34.2846 13.074 33.8439 12.8911 33.3842 12.8906H5.06491C4.60525 12.8911 4.16456 13.074 3.83962 13.3991C3.51467 13.7242 3.33203 14.165 3.33179 14.6247V26.304C3.33227 26.7635 3.51503 27.204 3.83994 27.529C4.16486 27.8539 4.60541 28.0366 5.06491 28.0371H9.49411C9.8593 28.0371 10.2095 28.1822 10.4678 28.4404C10.726 28.6986 10.8711 29.0489 10.8711 29.4141C10.8711 29.7793 10.726 30.1295 10.4678 30.3877C10.2095 30.6459 9.8593 30.791 9.49411 30.791H5.06491C3.87532 30.7896 2.73488 30.3163 1.89371 29.4752C1.05255 28.634 0.579338 27.4936 0.577881 26.304V14.6247C0.579095 13.4349 1.0522 12.2942 1.89339 11.4529C2.73458 10.6115 3.87517 10.1382 5.06491 10.1367H33.3842C34.574 10.1382 35.7146 10.6115 36.5558 11.4529C37.397 12.2942 37.8701 13.4349 37.8713 14.6247V26.304C37.8698 27.4936 37.3966 28.634 36.5554 29.4752C35.7143 30.3163 34.5738 30.7896 33.3842 30.791Z" fill="#5AC37D"/>
<path d="M8.02526 17.6641C7.9799 17.6642 7.93455 17.6621 7.8894 17.6576C7.84534 17.653 7.79761 17.6457 7.7563 17.6374C7.71499 17.6292 7.6645 17.6172 7.62503 17.6044C7.58556 17.5915 7.53966 17.5759 7.49835 17.5585C7.45704 17.541 7.41665 17.5218 7.37718 17.5007C7.33699 17.48 7.29806 17.457 7.2606 17.4318C7.22388 17.407 7.18716 17.3804 7.15227 17.3519C7.11739 17.3235 7.08343 17.2923 7.0513 17.2602C7.01917 17.228 6.98888 17.1941 6.9595 17.1592C6.93105 17.1245 6.90439 17.0883 6.87964 17.0509C6.85455 17.0129 6.8316 16.9744 6.81079 16.9352C6.78968 16.8957 6.7704 16.8544 6.75296 16.8131C6.73552 16.7718 6.72083 16.7286 6.70706 16.6864C6.69329 16.6442 6.68319 16.5946 6.67401 16.5552C6.66483 16.5157 6.65841 16.4634 6.65382 16.422C6.64502 16.3305 6.64502 16.2382 6.65382 16.1467C6.65841 16.1026 6.66575 16.0549 6.67401 16.0136C6.68228 15.9722 6.69421 15.9218 6.70706 15.8823C6.71991 15.8428 6.73552 15.7969 6.75296 15.7556C6.7704 15.7143 6.78968 15.673 6.81079 15.6335C6.8319 15.594 6.85485 15.5555 6.87964 15.5178C6.90439 15.4804 6.93105 15.4443 6.9595 15.4095C6.98796 15.3746 7.01917 15.3407 7.0513 15.3086C7.08343 15.2764 7.11739 15.2461 7.15227 15.2168C7.18716 15.1874 7.22388 15.1617 7.2606 15.1369C7.29806 15.1117 7.33699 15.0887 7.37718 15.068C7.41696 15.0472 7.45735 15.028 7.49835 15.0102C7.53966 14.9928 7.5828 14.9781 7.62503 14.9643C7.66726 14.9505 7.71683 14.9404 7.7563 14.9313C7.79577 14.9221 7.8481 14.9157 7.8894 14.9111C7.97948 14.9028 8.07013 14.9028 8.1602 14.9111C8.20518 14.9157 8.252 14.923 8.29423 14.9313C8.33645 14.9395 8.38602 14.9515 8.42458 14.9643C8.46313 14.9772 8.51087 14.9928 8.55218 15.0102C8.59349 15.0277 8.63388 15.0469 8.67335 15.068C8.71342 15.0889 8.75234 15.1119 8.78993 15.1369C8.82665 15.1617 8.86337 15.1883 8.89825 15.2168C8.93313 15.2452 8.9671 15.2764 8.99923 15.3086C9.03136 15.3407 9.06073 15.3746 9.09102 15.4095C9.12132 15.4444 9.1461 15.4811 9.17089 15.5178C9.19567 15.5546 9.21862 15.594 9.23973 15.6335C9.26085 15.673 9.28013 15.7143 9.29757 15.7556C9.31501 15.7969 9.3297 15.8401 9.34347 15.8823C9.35723 15.9245 9.36733 15.9741 9.37651 16.0136C9.38569 16.053 9.39212 16.1053 9.39671 16.1467C9.40551 16.2382 9.40551 16.3305 9.39671 16.422C9.39212 16.4661 9.38477 16.5138 9.37651 16.5552C9.36825 16.5965 9.35632 16.6469 9.34347 16.6864C9.33061 16.7259 9.31501 16.7718 9.29757 16.8131C9.28013 16.8544 9.26085 16.8957 9.23973 16.9352C9.21862 16.9747 9.19567 17.0132 9.17089 17.0509C9.1461 17.0885 9.11856 17.1243 9.09102 17.1592C9.06348 17.1941 9.03136 17.228 8.99923 17.2602C8.9671 17.2923 8.93313 17.3226 8.89825 17.3519C8.86337 17.3813 8.82665 17.407 8.78993 17.4318C8.75234 17.4568 8.71342 17.4798 8.67335 17.5007C8.63357 17.5215 8.59318 17.5407 8.55218 17.5585C8.51087 17.5759 8.46772 17.5906 8.42458 17.6044C8.38144 17.6182 8.33829 17.6283 8.29423 17.6374C8.25016 17.6466 8.20243 17.653 8.1602 17.6576C8.11536 17.6621 8.07032 17.6642 8.02526 17.6641Z" fill="#5AC37D"/>
<path d="M12.0643 17.664C12.0193 17.664 11.9725 17.664 11.9285 17.6576C11.8844 17.6512 11.8367 17.6457 11.7954 17.6374C11.7541 17.6292 11.7036 17.6172 11.6641 17.6044C11.6246 17.5915 11.5787 17.5759 11.5374 17.5585C11.4961 17.541 11.4548 17.5218 11.4153 17.5007C11.3758 17.4795 11.3373 17.4566 11.2997 17.4318C11.2622 17.407 11.2261 17.3804 11.1913 17.3519C11.1565 17.3235 11.1225 17.2923 11.0904 17.2601C11.0582 17.228 11.0279 17.194 10.9986 17.1592C10.9692 17.1243 10.9435 17.0876 10.9187 17.0508C10.8935 17.0132 10.8702 16.9743 10.8489 16.9343C10.8287 16.8948 10.8095 16.8544 10.792 16.8131C10.7746 16.7718 10.7599 16.7286 10.7461 16.6864C10.7324 16.6442 10.7223 16.5946 10.7131 16.5551C10.7039 16.5157 10.6975 16.4633 10.6929 16.422C10.6841 16.3305 10.6841 16.2382 10.6929 16.1466C10.6975 16.1026 10.7048 16.0548 10.7131 16.0135C10.7213 15.9722 10.7333 15.9217 10.7461 15.8823C10.759 15.8428 10.7746 15.7969 10.792 15.7556C10.8095 15.7143 10.8287 15.6739 10.8489 15.6344C10.8702 15.5944 10.8935 15.5555 10.9187 15.5178C10.9435 15.4811 10.9701 15.4444 10.9986 15.4095C11.027 15.3746 11.0582 15.3407 11.0904 15.3085C11.1225 15.2764 11.1565 15.2461 11.1913 15.2167C11.2261 15.1883 11.2622 15.1616 11.2997 15.1369C11.3376 15.1118 11.3762 15.0888 11.4153 15.068C11.4548 15.0469 11.4961 15.0276 11.5374 15.0102C11.5787 14.9928 11.6219 14.9781 11.6641 14.9643C11.7063 14.9505 11.7559 14.9404 11.7954 14.9313C11.8348 14.9221 11.8872 14.9156 11.9285 14.9111C12.0201 14.9026 12.1123 14.9026 12.2039 14.9111C12.2479 14.9156 12.2957 14.923 12.337 14.9313C12.3783 14.9395 12.4288 14.9514 12.4682 14.9643C12.5077 14.9772 12.5536 14.9928 12.5949 15.0102C12.6362 15.0276 12.6766 15.0469 12.7161 15.068C12.7556 15.0891 12.795 15.1121 12.8327 15.1369C12.8703 15.1617 12.9061 15.1883 12.941 15.2167C12.9759 15.2452 13.0098 15.2764 13.042 15.3085C13.0741 15.3407 13.1035 15.3746 13.1338 15.4095C13.164 15.4444 13.1888 15.4811 13.2136 15.5178C13.2385 15.5555 13.2615 15.5944 13.2825 15.6344C13.3033 15.6742 13.3226 15.7146 13.3403 15.7556C13.3577 15.7969 13.3724 15.84 13.3862 15.8823C13.4 15.9245 13.4101 15.9741 13.4192 16.0135C13.4284 16.053 13.4348 16.1053 13.4394 16.1466C13.4482 16.2382 13.4482 16.3305 13.4394 16.422C13.4348 16.4661 13.4275 16.5138 13.4192 16.5551C13.411 16.5965 13.399 16.6469 13.3862 16.6864C13.3733 16.7259 13.3577 16.7718 13.3403 16.8131C13.3229 16.8544 13.3036 16.8948 13.2825 16.9343C13.2615 16.9743 13.2385 17.0132 13.2136 17.0508C13.1888 17.0876 13.1613 17.1243 13.1338 17.1592C13.1062 17.194 13.0741 17.228 13.042 17.2601C13.0098 17.2923 12.9759 17.3226 12.941 17.3519C12.9061 17.3813 12.8694 17.407 12.8327 17.4318C12.7959 17.4566 12.7556 17.4795 12.7161 17.5007C12.6766 17.5218 12.6362 17.541 12.5949 17.5585C12.5536 17.5759 12.5105 17.5906 12.4682 17.6044C12.426 17.6182 12.3764 17.6282 12.337 17.6374C12.2975 17.6466 12.2452 17.653 12.2039 17.6576C12.1625 17.6622 12.1093 17.664 12.0643 17.664Z" fill="#5AC37D"/>
<path d="M24.6406 27.5781H13.8086C13.4434 27.5781 13.0932 27.4331 12.8349 27.1748C12.5767 26.9166 12.4316 26.5664 12.4316 26.2012C12.4316 25.836 12.5767 25.4857 12.8349 25.2275C13.0932 24.9693 13.4434 24.8242 13.8086 24.8242H24.6406C25.0058 24.8242 25.356 24.9693 25.6143 25.2275C25.8725 25.4857 26.0176 25.836 26.0176 26.2012C26.0176 26.5664 25.8725 26.9166 25.6143 27.1748C25.356 27.4331 25.0058 27.5781 24.6406 27.5781Z" fill="#5AC37D"/>
<path d="M24.6406 32.4434H13.8086C13.4434 32.4434 13.0932 32.2983 12.8349 32.0401C12.5767 31.7818 12.4316 31.4316 12.4316 31.0664C12.4316 30.7012 12.5767 30.351 12.8349 30.0928C13.0932 29.8345 13.4434 29.6895 13.8086 29.6895H24.6406C25.0058 29.6895 25.356 29.8345 25.6143 30.0928C25.8725 30.351 26.0176 30.7012 26.0176 31.0664C26.0176 31.4316 25.8725 31.7818 25.6143 32.0401C25.356 32.2983 25.0058 32.4434 24.6406 32.4434Z" fill="#5AC37D"/>
</svg>
